<svg xmlns="http://www.w3.org/2000/svg" width="27" height="16" fill="currentColor" class="bi bi-activity" viewBox="0 0 27 16">
  <path fill-rule="evenodd" d="M6 2a.5.5 0 0 1 .47.33L10 12.036l1.53-4.208A.5.5 0 0 1 12 7.5h3.5a.5.5 0 0 1 0 1h-3.15l-1.88 5.17a.5.5 0 0 1-.94 0L6 3.964 4.47 8.171A.5.5 0 0 1 4 8.5H.5a.5.5 0 0 1 0-1h3.15l1.88-5.17A.5.5 0 0 1 6 2Z"/>
</svg>

<svg xmlns="http://www.w3.org/2000/svg" width="16" height="16" fill="currentColor" class="bi bi-align-end" viewBox="0 0 16 16">
  <path fill-rule="evenodd" d="M482 768 c-28 -57 -114 -237 -191 -401 l-139 -298 61 3 62 3 126 270
c69 148 130 270 135 272 5 1 56 -84 114 -189 115 -209 168 -277 252 -323 49
-28 60 -30 158 -30 95 0 110 3 160 28 65 34 134 97 161 149 l19 38 -56 0 c-52
0 -60 -3 -101 -41 -56 -52 -101 -70 -172 -71 -68 -1 -145 30 -189 75 -31 33
-165 265 -282 490 l-67 128 -51 -103z"/>
  <path d="M960 781 c-75 -24 -174 -103 -206 -164 -14 -26 -13 -31 19 -83 l35
-55 16 41 c40 99 137 164 246 164 75 0 126 -22 179 -78 32 -33 39 -36 93 -36
32 0 58 4 58 8 0 16 -56 86 -96 123 -68 61 -127 83 -229 86 -49 1 -101 -1
-115 -6z"/>
</svg>

<?xml version="1.0" standalone="no"?>
<!DOCTYPE svg PUBLIC "-//W3C//DTD SVG 20010904//EN"
 "http://www.w3.org/TR/2001/REC-SVG-20010904/DTD/svg10.dtd">
<svg version="1.0" xmlns="http://www.w3.org/2000/svg"
 width="157.000000pt" height="92.000000pt" viewBox="0 0 157.000000 92.000000"
 preserveAspectRatio="xMidYMid meet">

<g transform="translate(0.000000,92.000000) scale(0.100000,-0.100000)"
fill="#000000" stroke="none">
<path d="M482 768 c-28 -57 -114 -237 -191 -401 l-139 -298 61 3 62 3 126 270
c69 148 130 270 135 272 5 1 56 -84 114 -189 115 -209 168 -277 252 -323 49
-28 60 -30 158 -30 95 0 110 3 160 28 65 34 134 97 161 149 l19 38 -56 0 c-52
0 -60 -3 -101 -41 -56 -52 -101 -70 -172 -71 -68 -1 -145 30 -189 75 -31 33
-165 265 -282 490 l-67 128 -51 -103z"/>
<path d="M960 781 c-75 -24 -174 -103 -206 -164 -14 -26 -13 -31 19 -83 l35
-55 16 41 c40 99 137 164 246 164 75 0 126 -22 179 -78 32 -33 39 -36 93 -36
32 0 58 4 58 8 0 16 -56 86 -96 123 -68 61 -127 83 -229 86 -49 1 -101 -1
-115 -6z"/>
</g>
</svg>
